<svg enable-background="new 0 0 745.67 299.45" viewBox="0 0 745.67 299.45" xmlns="http://www.w3.org/2000/svg" xmlns:xlink="http://www.w3.org/1999/xlink"><linearGradient id="a"><stop offset="0" stop-color="#e49006"/><stop offset="0" stop-color="#f5991c"/><stop offset="1" stop-color="#f07f1a"/></linearGradient><linearGradient id="b" gradientUnits="userSpaceOnUse" x1="-69.229" x2="96.2135" xlink:href="#a" y1="153.5402" y2="153.5402"/><linearGradient id="c" gradientUnits="userSpaceOnUse" x1="-26.183" x2="128.2334" xlink:href="#a" y1="152.1101" y2="152.1101"/><linearGradient id="d"><stop offset="0" stop-color="#f07f23"/><stop offset="0" stop-color="#f28c1b"/><stop offset="1" stop-color="#ffe756"/></linearGradient><linearGradient id="e" gradientUnits="userSpaceOnUse" x1="91.0256" x2="303.0232" xlink:href="#d" y1="109.6968" y2="321.6945"/><linearGradient id="f" gradientUnits="userSpaceOnUse" x1="35.1254" x2="255.0228" xlink:href="#a" y1="49.247" y2="108.889"/><linearGradient id="g" gradientUnits="userSpaceOnUse" x1="-35.5183" x2="276.71" xlink:href="#a" y1="149.1293" y2="149.1293"/><linearGradient id="h" gradientUnits="userSpaceOnUse" x1="206.9707" x2="262.2907" xlink:href="#d" y1="111.1267" y2="175.4364"/><linearGradient id="i"><stop offset="0" stop-color="#ce3b17"/><stop offset="1" stop-color="#f08225"/></linearGradient><linearGradient id="j" gradientUnits="userSpaceOnUse" x1="93.982" x2="80.4978" xlink:href="#i" y1="397.8083" y2="49.2917"/><linearGradient id="k" gradientUnits="userSpaceOnUse" x1="108.2948" x2="108.2948" xlink:href="#i" y1="327.8432" y2="-.4815"/><linearGradient id="l" gradientUnits="userSpaceOnUse" x1="239.0294" x2="342.0631" xlink:href="#d" y1="78.0882" y2="319.4221"/><clipPath id="m"><path d="m245.52 66.52c5.42 12.92 2.22-36.38-16.05-14.35-19.77-6.34-62.36-77.91-56.77-2.98-28.41-24.87-79.86 70.14-93.06 49.48v18c0 49.24 2.94 190.01 48.83 180.8 15.4-3.07 30.62-9.46 45.34-17.14 14.55 8.26 29.64 14.07 45.05 17.14 31.76 6.35 60.33-2.75 75.1-25.09 13.91-27.22-4.9-194.95-48.44-205.86z"/></clipPath><g fill="#e94d1e"><path d="m389.6 41.66v-.23c0-22.77 17.16-41.43 41.77-41.43 12.02 0 20.14 3.21 26.78 8.13 1.83 1.37 3.43 3.89 3.43 6.98 0 4.81-3.89 8.58-8.7 8.58-2.4 0-4.01-.92-5.27-1.72-4.92-3.66-10.07-5.72-16.37-5.72-13.5 0-23.23 11.22-23.23 24.95v.23c0 13.73 9.5 25.18 23.23 25.18 7.44 0 12.36-2.29 17.4-6.3 1.37-1.15 3.2-1.95 5.26-1.95 4.46 0 8.24 3.66 8.24 8.13 0 2.75-1.37 4.92-2.98 6.3-7.21 6.3-15.68 10.07-28.5 10.07-23.55 0-41.06-18.19-41.06-41.2z"/><path d="m473.88 41.66v-.23c0-22.77 17.97-41.43 42.69-41.43s42.46 18.43 42.46 41.2v.23c0 22.78-17.97 41.43-42.69 41.43s-42.46-18.42-42.46-41.2zm66.72 0v-.23c0-13.74-10.07-25.18-24.26-25.18s-24.03 11.22-24.03 24.95v.23c0 13.73 10.07 25.18 24.26 25.18s24.03-11.22 24.03-24.95z"/><path d="m576.89 9.73c0-4.92 3.89-8.81 8.81-8.81h1.95c3.78 0 6.41 1.95 8.01 4.58l21.29 34.68 21.4-34.79c1.83-2.98 4.35-4.46 7.89-4.46h1.95c4.92 0 8.81 3.89 8.81 8.81v63.63c0 4.92-3.89 8.81-8.81 8.81-4.81 0-8.7-4.01-8.7-8.81v-39.95l-15.45 23.8c-1.83 2.75-4.12 4.46-7.32 4.46s-5.49-1.72-7.32-4.46l-15.22-23.46v39.83c0 4.81-3.89 8.58-8.7 8.58s-8.59-3.78-8.59-8.58z"/><path d="m679.15 72.68v-62.49c0-4.92 3.89-8.81 8.81-8.81h44.41c4.35 0 7.9 3.55 7.9 7.9s-3.55 7.78-7.9 7.78h-35.71v16.25h30.56c4.35 0 7.9 3.55 7.9 7.89 0 4.35-3.55 7.78-7.9 7.78h-30.56v16.82h36.28c4.35 0 7.9 3.55 7.9 7.9s-3.55 7.78-7.9 7.78h-44.98c-4.93.01-8.81-3.88-8.81-8.8z"/><path d="m393.14 174.16v-62.49c0-4.92 3.89-8.81 8.81-8.81h44.41c4.35 0 7.9 3.55 7.9 7.9s-3.55 7.78-7.9 7.78h-35.71v16.25h30.56c4.35 0 7.9 3.55 7.9 7.9s-3.55 7.78-7.9 7.78h-30.56v16.82h36.28c4.35 0 7.9 3.55 7.9 7.9s-3.55 7.78-7.9 7.78h-44.98c-4.92 0-8.81-3.89-8.81-8.81z"/><path d="m467.97 171.64 27.93-63.06c1.95-4.35 5.49-6.98 10.3-6.98h1.03c4.81 0 8.24 2.63 10.19 6.98l27.93 63.06c.57 1.26.92 2.4.92 3.55 0 4.69-3.66 8.47-8.36 8.47-4.12 0-6.87-2.4-8.47-6.06l-5.38-12.59h-35.26l-5.61 13.16c-1.49 3.43-4.46 5.49-8.13 5.49-4.58 0-8.13-3.66-8.13-8.24.01-1.26.47-2.52 1.04-3.78zm49.56-22.2-11.1-26.44-11.1 26.44z"/><path d="m570.49 119.11h-16.94c-4.46 0-8.13-3.66-8.13-8.13 0-4.46 3.66-8.13 8.13-8.13h51.5c4.46 0 8.13 3.66 8.13 8.13 0 4.46-3.66 8.13-8.13 8.13h-16.94v55.74c0 4.92-3.89 8.81-8.81 8.81s-8.81-3.89-8.81-8.81z"/><path d="m393.14 212.47c0-4.92 3.89-8.81 8.81-8.81s8.81 3.89 8.81 8.81v23.58h32.5v-23.58c0-4.92 3.89-8.81 8.81-8.81s8.81 3.89 8.81 8.81v63.86c0 4.92-3.89 8.81-8.81 8.81s-8.81-3.89-8.81-8.81v-24.03h-32.5v24.03c0 4.92-3.89 8.81-8.81 8.81s-8.81-3.89-8.81-8.81z"/><path d="m478.71 244.63v-.23c0-22.78 17.97-41.43 42.69-41.43s42.46 18.43 42.46 41.2v.23c0 22.78-17.97 41.43-42.69 41.43s-42.46-18.42-42.46-41.2zm66.72 0v-.23c0-13.74-10.07-25.18-24.26-25.18s-24.03 11.22-24.03 24.95v.23c0 13.73 10.07 25.18 24.26 25.18s24.03-11.22 24.03-24.95z"/><path d="m581.73 212.7c0-4.92 3.89-8.81 8.81-8.81h1.95c3.78 0 6.41 1.95 8.01 4.58l21.29 34.68 21.4-34.79c1.83-2.98 4.35-4.46 7.9-4.46h1.95c4.92 0 8.81 3.89 8.81 8.81v63.63c0 4.92-3.89 8.81-8.81 8.81-4.81 0-8.7-4.01-8.7-8.81v-39.94l-15.45 23.8c-1.83 2.75-4.12 4.46-7.32 4.46s-5.49-1.72-7.32-4.46l-15.22-23.46v39.83c0 4.81-3.89 8.58-8.7 8.58s-8.58-3.78-8.58-8.58v-63.87z"/><path d="m683.98 275.65v-62.49c0-4.92 3.89-8.81 8.81-8.81h44.41c4.35 0 7.9 3.55 7.9 7.9s-3.55 7.78-7.9 7.78h-35.71v16.25h30.56c4.35 0 7.9 3.55 7.9 7.89 0 4.35-3.55 7.78-7.9 7.78h-30.56v16.82h36.28c4.35 0 7.9 3.55 7.9 7.9s-3.55 7.78-7.9 7.78h-44.98c-4.92.01-8.81-3.88-8.81-8.8z"/></g><path clip-rule="evenodd" d="m173.56 191.75c0-54.43 51.22-94.35 117.28-92.23 0-26.05 0-52.2 0-78.25 0-3.71-2.97-6.78-6.69-6.78-15.93 0-23.06 0-38.99 0-3.72 0-6.7 3.07-6.7 6.78v29.86c-15.51-12.28-30.91-24.46-46.42-36.64-11.47-9.11-25.38-9.11-36.96 0-18.91 14.93-37.92 29.97-56.83 44.9-31.97 31.66-29.42 79.21-14.02 118.18 8.71 22.03 22.2 43.1 38.56 61.31-56.72-68.52 38.88-100.82 50.77-47.13z" fill="#4e4d4d" fill-rule="evenodd"/><path clip-rule="evenodd" d="m295.31 234.32c0-26.89 0-53.9 0-80.9h31.22c12.43 0 15.94-13.13 6.16-20.86-14.02-11.01-27.93-22.03-41.85-33.04 0-26.05 0-52.2 0-78.25 0-3.71-2.97-6.78-6.69-6.78-15.93 0-23.06 0-38.99 0-3.72 0-6.7 3.07-6.7 6.78v29.86c-15.51-12.28-30.91-24.46-46.42-36.64-11.47-9.11-25.38-9.11-36.96 0-18.91 14.93-37.92 29.97-56.83 44.9-52.25 41.3-.25 288.85-.25 226.99 0 33.57 111.96-28.57 75.56-6.21 40.07-24.62 17.39-7.83 50.77-41.3 15.7-15.73-32.18 30.71-50.77 41.3 14.55 8.26 29.85 14.19 45.25 17.26 45.89 9.21 76.5-13.87 76.5-63.11z" fill="url(#b)" fill-rule="evenodd"/><path clip-rule="evenodd" d="m301.49 234.32c0-26.89 0-53.9 0-80.9h31.22c12.43 0 15.94-13.13 6.16-20.86-14.02-11.01-27.93-22.03-41.85-33.04 0-26.05 0-52.2 0-78.25 0-3.71-2.97-6.78-6.69-6.78-15.93 0-23.06 0-38.99 0-3.72 0-6.7 3.07-6.7 6.78v29.86c-15.51-12.28-30.91-24.46-46.42-36.64-11.47-9.11-25.38-9.11-36.96 0-18.91 14.93-37.92 29.97-56.83 44.9-52.26 41.3-.25 288.86-.25 227 0 33.57 111.96-28.57 75.56-6.21 40.07-24.62 17.39-7.83 50.77-41.3 15.7-15.73-32.18 30.71-50.77 41.3 14.55 8.26 29.96 8.56 45.36 11.64 45.88 9.2 76.39-8.26 76.39-57.5z" fill="url(#c)" fill-rule="evenodd"/><path clip-rule="evenodd" d="m293.91 272.34c13.92-27.21-10.62-75.71-54.16-86.62 5.42 12.92 2.86 31.13-15.41 53.16-14.87 16.52-32.18 30.71-50.77 41.3 14.55 8.26 29.85 14.19 45.25 17.26 31.75 6.35 60.32-2.76 75.09-25.1z" fill="url(#e)" fill-rule="evenodd"/><path clip-rule="evenodd" d="m238.46 51.13c-59.48 7.42-98.35 55.49-92.84 114.05 1.38.1 2.66.42 3.93.74 10.94 2.64 20.61 10.8 24 25.41v.42c0-54.43 60.12-94.35 126.18-92.23 0-26.05 0-52.2 0-78.25 0-3.71-2.97-6.78-6.69-6.78-15.93 0-31.97 0-47.9 0-3.72 0-6.7 3.07-6.7 6.78.02 9.95.02 19.9.02 29.86z" fill="url(#f)" fill-rule="evenodd"/><path clip-rule="evenodd" d="m106.54 188.15c-24.22-37.38-36.86-100.28-8.28-128.77-31.97 31.66-29.42 79.21-14.02 118.18 8.71 22.03 22.2 43.1 38.56 61.31-17.11-20.65-20.4-38.01-16.26-50.72z" fill="url(#g)" fill-rule="evenodd"/><path clip-rule="evenodd" d="m299.75 99.52c-66.06-2.12-126.18 37.8-126.18 92.23 3.08-13.76 11.68-21.92 21.78-25.2 14.43-37.49 52.25-66.82 104.4-67.03z" fill="url(#h)" fill-rule="evenodd"/><path clip-rule="evenodd" d="m43.03 234.32c0-26.89 0-53.9 0-80.9-10.41 0-20.82 0-31.23 0-12.43 0-15.94-13.13-6.17-20.86 30.91-24.36 61.71-48.71 92.62-73.17-31.97 31.66-29.42 79.21-14.02 118.18 16.68 41.93 50.35 80.37 89.33 102.61-14.45 8.26-29.74 14.19-45.14 17.26-45.89 9.2-85.39-13.88-85.39-63.12z" fill="url(#j)" fill-rule="evenodd"/><path clip-rule="evenodd" d="m173.56 280.17c-67.34 2.44-113.02-36.42-130.54-63.85v18c0 49.24 39.51 72.32 85.4 63.11 15.41-3.07 30.7-9 45.14-17.26z" fill="url(#k)" fill-rule="evenodd"/><path clip-rule="evenodd" d="m299.75 99.52c-52.15.21-89.97 29.54-104.41 67.03 16.57-5.4 37.39 2.22 44.4 19.17 43.54 10.91 68.08 59.41 54.16 86.62 6.59-10.06 10.31-22.77 10.31-38.02 0-26.89 0-53.9 0-80.9h31.22c12.43 0 15.94-13.13 6.16-20.86-14.01-11.01-27.92-22.03-41.84-33.04z" fill="url(#l)" fill-rule="evenodd"/><g clip-rule="evenodd" fill-rule="evenodd" opacity=".7"><path d="m173.56 191.75c0-54.43 51.22-94.35 117.28-92.23 0-26.05 0-52.2 0-78.25 0-3.71-2.97-6.78-6.69-6.78-15.93 0-23.06 0-38.99 0-3.72 0-6.7 3.07-6.7 6.78v29.86c-15.51-12.28-30.91-24.46-46.42-36.64-11.47-9.11-25.38-9.11-36.96 0-18.91 14.93-37.92 29.97-56.83 44.9-31.97 31.66-29.42 79.21-14.02 118.18 8.71 22.03 22.2 43.1 38.56 61.31-56.72-68.52 38.88-100.82 50.77-47.13z" fill="#4e4d4d"/><path d="m295.31 234.32c0-26.89 0-53.9 0-80.9h31.22c12.43 0 15.94-13.13 6.16-20.86-14.02-11.01-27.93-22.03-41.85-33.04 0-26.05 0-52.2 0-78.25 0-3.71-2.97-6.78-6.69-6.78-15.93 0-23.06 0-38.99 0-3.72 0-6.7 3.07-6.7 6.78v29.86c-15.51-12.28-30.91-24.46-46.42-36.64-11.47-9.11-25.38-9.11-36.96 0-18.91 14.93-37.92 29.97-56.83 44.9-52.25 41.3-.25 288.85-.25 226.99 0 33.57 111.96-28.57 75.56-6.21 40.07-24.62 17.39-7.83 50.77-41.3 15.7-15.73-32.18 30.71-50.77 41.3 14.55 8.26 29.85 14.19 45.25 17.26 45.89 9.21 76.5-13.87 76.5-63.11z" fill="url(#b)"/><path d="m301.49 234.32c0-26.89 0-53.9 0-80.9h31.22c12.43 0 15.94-13.13 6.16-20.86-14.02-11.01-27.93-22.03-41.85-33.04 0-26.05 0-52.2 0-78.25 0-3.71-2.97-6.78-6.69-6.78-15.93 0-23.06 0-38.99 0-3.72 0-6.7 3.07-6.7 6.78v29.86c-15.51-12.28-30.91-24.46-46.42-36.64-11.47-9.11-25.38-9.11-36.96 0-18.91 14.93-37.92 29.97-56.83 44.9-52.26 41.3-.25 288.86-.25 227 0 33.57 111.96-28.57 75.56-6.21 40.07-24.62 17.39-7.83 50.77-41.3 15.7-15.73-32.18 30.71-50.77 41.3 14.55 8.26 29.96 8.56 45.36 11.64 45.88 9.2 76.39-8.26 76.39-57.5z" fill="url(#c)"/><path d="m293.91 272.34c13.92-27.21-10.62-75.71-54.16-86.62 5.42 12.92 2.86 31.13-15.41 53.16-14.87 16.52-32.18 30.71-50.77 41.3 14.55 8.26 29.85 14.19 45.25 17.26 31.75 6.35 60.32-2.76 75.09-25.1z" fill="url(#e)"/><path d="m238.46 51.13c-59.48 7.42-98.35 55.49-92.84 114.05 1.38.1 2.66.42 3.93.74 10.94 2.64 20.61 10.8 24 25.41v.42c0-54.43 60.12-94.35 126.18-92.23 0-26.05 0-52.2 0-78.25 0-3.71-2.97-6.78-6.69-6.78-15.93 0-31.97 0-47.9 0-3.72 0-6.7 3.07-6.7 6.78.02 9.95.02 19.9.02 29.86z" fill="url(#f)"/><path d="m106.54 188.15c-24.22-37.38-36.86-100.28-8.28-128.77-31.97 31.66-29.42 79.21-14.02 118.18 8.71 22.03 22.2 43.1 38.56 61.31-17.11-20.65-20.4-38.01-16.26-50.72z" fill="url(#g)"/><path d="m299.75 99.52c-66.06-2.12-126.18 37.8-126.18 92.23 3.08-13.76 11.68-21.92 21.78-25.2 14.43-37.49 52.25-66.82 104.4-67.03z" fill="url(#h)"/><path d="m43.03 234.32c0-26.89 0-53.9 0-80.9-10.41 0-20.82 0-31.23 0-12.43 0-15.94-13.13-6.17-20.86 30.91-24.36 61.71-48.71 92.62-73.17-31.97 31.66-29.42 79.21-14.02 118.18 16.68 41.93 50.35 80.37 89.33 102.61-14.45 8.26-29.74 14.19-45.14 17.26-45.89 9.2-85.39-13.88-85.39-63.12z" fill="url(#j)"/><path d="m173.56 280.17c-67.34 2.44-113.02-36.42-130.54-63.85v18c0 49.24 39.51 72.32 85.4 63.11 15.41-3.07 30.7-9 45.14-17.26z" fill="url(#k)"/><path d="m299.75 99.52c-52.15.21-89.97 29.54-104.41 67.03 16.57-5.4 37.39 2.22 44.4 19.17 43.54 10.91 68.08 59.41 54.16 86.62 6.59-10.06 10.31-22.77 10.31-38.02 0-26.89 0-53.9 0-80.9h31.22c12.43 0 15.94-13.13 6.16-20.86-14.01-11.01-27.92-22.03-41.84-33.04z" fill="url(#l)"/></g><g clip-path="url(#m)"><path d="m198.8 262.46c13.46-7.98 22.54-22.59 22.7-39.37v-.01l-5.59-108.43c-.23-4.37-4-7.75-8.46-7.4-4.27.34-7.34 4.33-7.17 8.61l3.46 86.47c-.05 4.89-4.05 8.81-8.93 8.76s-8.81-4.05-8.76-8.93l-1.33-86.9c-.08-5.46-5.33-9.66-11.06-7.95-3.49 1.04-5.74 4.46-5.87 8.1l-2.97 86.54c-.05 4.89-4.05 8.81-8.93 8.76-4.89-.05-8.81-4.04-8.76-8.93l5.12-86.47c.22-3.7-1.94-7.34-5.5-8.37-5.05-1.45-9.76 2.1-10.1 6.95l-7.66 108.3v.01c-.16 16.79 8.65 31.57 21.95 39.8 8.66 5.36 13.42 15.27 12.2 25.38l-11.51 12.05c-.37 3.59-2.94 6.57-6.43 7.47l43.64 19.08-2.72-38.38c-1.03-10.13 3.92-19.95 12.68-25.14z" fill="#fff"/></g></svg>