<svg enable-background="new 0 0 167.24 113.85" viewBox="0 0 167.24 113.85" xmlns="http://www.w3.org/2000/svg" xmlns:xlink="http://www.w3.org/1999/xlink"><linearGradient id="a"><stop offset="0" stop-color="#c93d1c" stop-opacity=".9707"/><stop offset="1" stop-color="#e4972f" stop-opacity=".9707"/></linearGradient><linearGradient id="b" gradientUnits="userSpaceOnUse" x1="0" x2="167.2388" xlink:href="#a" y1="74.1574" y2="74.1574"/><linearGradient id="c" gradientUnits="userSpaceOnUse" x1="49.0599" x2="118.0612" xlink:href="#a" y1="102.1768" y2="102.1768"/><linearGradient id="d" gradientUnits="userSpaceOnUse" x1="109.9822" x2="133.0838" xlink:href="#a" y1="22.6388" y2="22.6388"/><linearGradient id="e" gradientUnits="userSpaceOnUse" x1="100.5373" x2="113.647" xlink:href="#a" y1="25.0473" y2="25.0473"/><path d="m167.24 97.41c-.94 2.46-1.55 5.13-2.88 7.36-3.42 5.73-8.67 8.92-15.35 8.99-14.97.16-29.95.07-44.92.06-1.83 0-2.85-.92-2.86-2.41-.01-1.59 1.08-2.48 3.16-2.48 14.05-.01 28.1 0 42.14-.01 1.25 0 2.51.02 3.75-.13 6.3-.77 11.48-6.23 12-12.59.02-.2-.02-.41-.04-.69-52.42 0-104.78 0-157.4 0 .15.99.23 1.94.45 2.85 1.49 5.99 6.8 10.4 13.01 10.5 8.22.13 16.44.06 24.66.06 16.5 0 33 0 49.5.01.7 0 1.43 0 2.1.18 1.2.33 1.81 1.25 1.71 2.46-.1 1.19-.8 2.01-2.05 2.19-.48.07-.98.06-1.47.06-24.39 0-48.79.02-73.18-.01-9.57.01-17-5.67-19.07-14.65-.46-1.99-.47-4.1-.5-6.16-.02-1.61 1.03-2.45 2.81-2.46 5.28-.02 10.56-.01 15.84-.01.22 0 .43-.03.91-.06 0-.57 0-1.14 0-1.71 0-4.08 0-8.17 0-12.25 0-2.32.86-3.51 2.5-3.48 1.58.03 2.4 1.18 2.4 3.4v13.98h45.27c0-.67 0-1.31 0-1.95 0-10.56 0-21.13 0-31.69 0-4.56 1.74-6.39 6.32-6.68 2.87-.18 5.02-2.32 5.16-5.14.13-2.73-1.92-5.12-4.75-5.52-.48-.07-.98-.08-1.47-.08-18.62 0-37.24-.03-55.87.05-1.38.01-2.92.5-4.09 1.23-1.86 1.15-2.45 3.59-1.8 5.66.67 2.14 2.44 3.58 4.64 3.77.65.06 1.31.04 1.95.15 2.71.46 4.57 2.56 4.62 5.31.05 3.27.03 6.53.01 9.8-.01 1.69-.93 2.7-2.37 2.74-1.51.04-2.49-1.01-2.51-2.77-.03-2.89-.06-5.77.01-8.66.03-1.16-.28-1.61-1.52-1.69-6.01-.36-10.13-4.84-9.95-10.7.18-5.57 4.75-9.78 10.77-9.79 17.7-.03 35.39-.01 53.09-.01 1.69 0 3.39-.05 5.06.14 5.09.58 8.79 4.62 9.08 9.76.27 4.83-3.24 9.35-8.13 10.45-.11.02-.21.05-.32.07-3.02.53-3.02.53-3.02 3.7v29.73 2.08h16.74c-.45-.95-.9-1.86-1.3-2.79-1.3-2.99-1.89-6.12-1.89-9.37 0-8.98 0-17.97 0-26.95 0-2.54.77-3.34 3.3-3.34 8.11-.02 16.23-.01 24.34-.01.22 0 .44 0 .65.02 1.58.13 2.56 1.04 2.57 2.4.02 1.41-1.02 2.45-2.67 2.46-4.9.04-9.8.02-14.7.02-2.77 0-5.55 0-8.51 0-.03.62-.08 1.13-.08 1.65v23.69c0 4.16 1.14 7.96 3.7 11.25.45.57 1.4 1.07 2.12 1.07 11.92.07 23.85.03 35.77.07.98 0 1.6-.31 2.16-1.09 2.13-2.94 3.52-6.19 3.57-9.82.11-8.66.05-17.31.05-25.97 0-.21-.05-.42-.1-.84-.88 0-1.73 0-2.58 0-3.54 0-7.08.01-10.62-.01-2.1-.01-3.15-.86-3.14-2.47.01-1.55 1.03-2.41 3.03-2.42 5.12-.02 10.24-.03 15.35 0 2.14.01 2.94.87 2.96 2.99.02 1.84 0 3.67 0 5.69h8.29c4.21.01 6.04 2.32 5.09 6.44-.41 1.8-.83 3.6-1.29 5.39-1.43 5.64-5.51 9.24-11.32 10.04-.21.03-.41.1-.18.04-1.14 4.14-2.21 8.02-3.29 11.94.17.01.68.05 1.2.05 6.64 0 13.29.04 19.93-.02 1.5-.01 2.65.36 3.43 1.67.02 1.78.02 3.52.02 5.26zm-21.81-23.91c4.88-.03 8.43-5.11 8.38-11.82-2.79 0-5.57 0-8.38 0z" fill="url(#b)"/><path d="m83.59 99.73c10.34 0 20.68 0 31.01.01.64 0 2.07-.11 2.46.24 1.12.7.88 1.52.99 2.38.15 1.16-.73 2-1.96 2.22-.53.09-1.08.05-1.63.05-20.57 0-41.13 0-61.7 0-2.51 0-3.69-.78-3.7-2.43s1.21-2.47 3.68-2.47z" fill="url(#c)"/><path d="m121.83 7.95c0 1.8-.03 3.59.01 5.39.05 2.03 1.21 3.2 3.23 3.38 5.01.43 7.92 3.51 8 8.51.02 1.19.02 2.4-.12 3.58-.43 3.71-3.63 6.71-7.37 6.86-2.01.08-4.03.03-6.04.03-3.82 0-4.66.86-4.66 4.73 0 .76.04 1.53-.02 2.28-.12 1.62-1.16 2.62-2.59 2.55-1.38-.07-2.23-1.03-2.28-2.65-.04-1.2-.03-2.39 0-3.59.09-4.73 3.39-8.08 8.13-8.21 2.18-.06 4.35.01 6.53-.02 2.27-.03 3.4-1.13 3.5-3.39.04-.81.04-1.63 0-2.45-.12-2.1-1.17-3.17-3.25-3.34-4.94-.41-7.96-3.64-7.98-8.55-.02-3.37-.02-6.75 0-10.12.01-1.91.94-2.97 2.5-2.94 1.5.03 2.37 1.05 2.39 2.88.04 1.69.02 3.38.02 5.07z" fill="url(#d)"/><path d="m100.56 32.62c0-1.31-.04-2.61.01-3.92.12-3.21 2.51-5.76 5.7-6.14 2.15-.26 2.44-.59 2.45-2.8.01-2.12-.02-4.25.01-6.37.03-1.63.88-2.56 2.29-2.63 1.47-.07 2.54.9 2.58 2.54.06 2.61.11 5.23-.02 7.84-.17 3.34-2.45 5.76-5.87 6.16-1.75.2-2.35.94-2.27 2.63.1 2.12.04 4.25.02 6.37-.02 1.94-.91 3.02-2.43 3.04-1.56.02-2.44-1.02-2.46-2.96-.01-1.25 0-2.5 0-3.76-.02 0-.02 0-.01 0z" fill="url(#e)"/></svg>