<svg enable-background="new 0 0 65.9 47.48" viewBox="0 0 65.9 47.48" xmlns="http://www.w3.org/2000/svg"><g fill="#3d5378"><path d="m34.87 43.16c-10.2-.02-18.47-8.36-18.41-18.58.05-10.1 8.36-18.37 18.47-18.38 10.18-.01 18.5 8.32 18.49 18.52 0 10.21-8.31 18.46-18.55 18.44zm.95-32.76c-1.44-.1-2.77.12-2.84 1.89-.08 1.74 1.15 2.06 2.63 2.18 5.35.41 9.17 4.34 9.57 9.82.11 1.46.65 2.48 2.24 2.4 1.54-.08 1.91-1.19 1.87-2.53-.18-7.27-6.28-13.5-13.47-13.76z"/><path d="m6.36 18.69c-.83 0-1.43.02-2.02 0-2.54-.11-4.22-1.62-4.28-4.14-.1-4.07-.05-8.14-.02-12.21 0-1.36.57-2.36 2.11-2.34 1.63.02 2.11 1.06 2.1 2.52-.02 3.22-.01 6.44-.01 9.79.72.04 1.3.08 2.17.13 0-2.53 0-4.95 0-7.38 0-.9-.01-1.8 0-2.69.02-1.38.56-2.37 2.09-2.35 1.44.02 1.92.99 1.92 2.3 0 2.81-.01 5.63.01 8.44.01 1.7.03 1.7 2.09 1.52 0-2.78 0-5.57 0-8.37 0-.6-.03-1.2.02-1.79.1-1.32.76-2.13 2.17-2.1 1.32.02 2.01.82 2.03 2.05.05 4.19.09 8.38-.02 12.57-.06 2.23-1.66 3.7-3.93 3.91-.76.07-1.53.07-2.46.11v2.03 23.52c0 .54.17 1.23-.1 1.58-.49.65-1.29 1.58-1.86 1.52-.71-.08-1.4-.99-1.93-1.67-.24-.3-.06-.93-.06-1.41 0-7.78 0-15.56 0-23.34-.02-.66-.02-1.31-.02-2.2z"/><path d="m65.89.14v9.83 33.75c0 .54.02 1.08-.02 1.61-.1 1.29-.66 2.21-2.1 2.15-1.35-.06-1.84-.96-1.85-2.18-.02-2.39-.01-4.79-.01-7.18 0-2.21 0-4.43 0-6.64 0-1.68-.61-3-2.16-3.84-1.37-.74-2.07-1.91-2.06-3.51.02-4.79-.06-9.58.05-14.36.11-4.64 3.67-8.82 8.15-9.63z"/></g></svg>