<?xml version="1.0" encoding="utf-8"?>
<!-- Generator: Adobe Illustrator 24.0.1, SVG Export Plug-In . SVG Version: 6.00 Build 0)  -->
<svg version="1.1" id="Layer_1" xmlns="http://www.w3.org/2000/svg" xmlns:xlink="http://www.w3.org/1999/xlink" x="0px" y="0px"
	 viewBox="0 0 61.75 61.72" style="enable-background:new 0 0 61.75 61.72;" xml:space="preserve">
<style type="text/css">
	.st0{fill:#8B919E;}
</style>
<g>
	<path class="st0" d="M22.43,40.2c1.31-0.64,2.61-1.11,3.72-1.86c2.02-1.37,3.25-3.41,4.03-5.67c1.13-3.27,1.55-6.63,0.68-10.04
		c-0.84-3.32-2.62-6.06-5.42-8.07c-3.47-2.48-7.39-2.26-10.74,0.67c-3.37,2.94-5.04,6.69-4.98,11.16c0.04,3.14,0.69,6.14,2.34,8.86
		c1.31,2.16,3.09,3.72,5.54,4.46c0.32,0.1,0.62,0.22,0.96,0.34c-0.32,6.19-0.64,12.34-0.96,18.52C8.66,54.76-0.66,43.85,0.04,29.38
		C0.79,13.79,12.98,1.59,27.8,0.15C43.73-1.4,57.38,9.19,60.85,23.51c3.67,15.12-4.41,28.42-14.49,33.93
		c-0.06-0.87-0.12-1.71-0.16-2.56c-0.21-4.19-0.41-8.38-0.65-12.56c-0.03-0.52,0.09-0.74,0.61-0.89c2.16-0.62,3.94-1.86,5.15-3.74
		c0.46-0.71,0.69-1.71,0.67-2.56c-0.13-4.12-0.3-8.23-0.61-12.34c-0.24-3.3-0.7-6.58-1.06-9.91c-0.52,0-0.98,0-1.5,0
		c0,6.88,0,13.74,0,20.65c-0.64,0-1.23,0-1.89,0c0-6.85,0-13.72,0-20.64c-0.75,0-1.43,0-2.18,0c0,6.87,0,13.74,0,20.66
		c-0.66,0-1.24,0-1.91,0c0-6.89,0-13.76,0-20.67c-0.72,0-1.36,0-2.07,0c0,6.87,0,13.74,0,20.66c-0.66,0-1.24,0-1.91,0
		c0-6.87,0-13.74,0-20.66c-0.69,0-1.29,0-1.97,0c-0.23,1.97-0.5,3.93-0.67,5.89c-0.39,4.51-0.76,9.02-1.06,13.53
		c-0.09,1.35,0.04,2.71,0.16,4.06c0.04,0.49,0.28,1.02,0.57,1.43c1.31,1.81,3.05,3.05,5.21,3.68c0.16,0.05,0.31,0.11,0.5,0.18
		c0,0.2,0.01,0.38,0,0.57c-0.29,5.81-0.58,11.61-0.9,17.41c-0.01,0.22-0.28,0.54-0.5,0.61c-5.34,1.7-10.74,1.96-16.21,0.69
		c-0.42-0.1-0.53-0.28-0.55-0.67c-0.29-5.76-0.58-11.52-0.88-17.27C22.53,42.03,22.47,41.08,22.43,40.2z"/>
	<path class="st0" d="M11.7,28.59c0.15-2.51,0.59-4.64,1.84-6.52c0.14-0.21,0.45-0.32,0.68-0.47c0.04,0.28,0.18,0.58,0.12,0.82
		c-1.39,5.28-0.29,10.01,3.05,14.27c0.13,0.16,0.16,0.4,0.24,0.6c-0.23,0.01-0.54,0.11-0.69,0c-0.83-0.59-1.73-1.13-2.4-1.87
		C12.7,33.42,11.88,30.97,11.7,28.59z"/>
</g>
</svg>
