<svg viewBox="0 0 126.82 127.76" xmlns="http://www.w3.org/2000/svg" xmlns:xlink="http://www.w3.org/1999/xlink"><linearGradient id="a" gradientTransform="matrix(1 0 0 -1 0 -145.82)" gradientUnits="userSpaceOnUse" x1="5.03" x2="120.85" y1="-209.7" y2="-209.7"><stop offset="0" stop-color="#c93d1c" stop-opacity=".97"/><stop offset="1" stop-color="#e4972f" stop-opacity=".97"/></linearGradient><linearGradient id="b" x1="20.87" x2="50.26" xlink:href="#a" y1="-224.32" y2="-224.32"/><linearGradient id="c" x1="88.57" x2="91.57" xlink:href="#a" y1="-222.81" y2="-222.81"/><linearGradient id="d" x1="79.23" x2="82.17" xlink:href="#a" y1="-219.01" y2="-219.01"/><linearGradient id="e" x1="83.69" x2="86.64" xlink:href="#a" y1="-230.57" y2="-230.57"/><linearGradient id="f" x1="94.58" x2="97.52" xlink:href="#a" y1="-231.61" y2="-231.61"/><linearGradient id="g" x1="101.39" x2="104.36" xlink:href="#a" y1="-238.08" y2="-238.08"/><linearGradient id="h" x1="93.85" x2="96.81" xlink:href="#a" y1="-241.12" y2="-241.12"/><linearGradient id="i" x1="84.69" x2="87.62" xlink:href="#a" y1="-241.16" y2="-241.16"/><path d="m116.86 127.26h-106.86a9.42 9.42 0 0 1 -9.5-9.37v-108.03a9.41 9.41 0 0 1 9.5-9.36h106.9a9.41 9.41 0 0 1 9.46 9.36v108a9.41 9.41 0 0 1 -9.46 9.37z" fill="#fff" stroke="#3c5377" stroke-miterlimit="10"/><path d="m5 109.32c.24-.62.43-1.27.72-1.87a7.94 7.94 0 0 1 6.77-4.53v-8a8.51 8.51 0 0 1 0-1.13c.26-2.29-.14-4-2.37-5.51-2.85-1.9-3.89-5.08-3.9-8.5 0-2 0-4.07 0-6.11s.46-2.49 2.54-2.51h1.1v-1.43c0-10.06 0-20.13 0-30.19 0-2.86.72-4.69 4.38-4.41h1.2c.38-1.89.36-2-1.12-2.68a6.61 6.61 0 0 1 -3-8.85c1.19-2.35 2.49-4.65 3.82-6.93a2.42 2.42 0 0 1 4.38 0c1.23 2.33 2.48 4.54 3.69 6.85a6.42 6.42 0 0 1 -2.84 8.78c-1.41.66-1.59 1.44-1.29 2.82h2.2c2.22 0 3.37 1.17 3.38 3.46q0 7.91 0 15.82v1.47h11.85c1.6 0 2.44.6 2.41 1.72s-.86 1.67-2.48 1.67h-17.36a5.81 5.81 0 0 0 -.11.93c0 4.15 0 8.29.06 12.44a16.85 16.85 0 0 0 12.97 15.89c1.61.38 2 .82 2 2.52v11.64a3.86 3.86 0 0 1 -1.61 3.32c-1.24 1-2.54 1.86-4 2.91h14.42c-.87-.59-1.54-1-2.18-1.5s-1.46-1.06-2.15-1.64a3.62 3.62 0 0 1 -1.29-3c.06-3.92 0-7.84 0-11.75 0-1.7.34-2.12 2-2.51a16.84 16.84 0 0 0 12.91-15.65c.13-4.3.06-8.59.07-12.89a6.33 6.33 0 0 0 -.07-.69h-2.93c-1.36 0-2.72 0-4.07 0a1.62 1.62 0 0 1 -1.63-1.68 1.57 1.57 0 0 1 1.64-1.65c2.63 0 5.28-.05 7.92 0a2.57 2.57 0 0 1 2.53 2.78v6.44 1.47a41.81 41.81 0 0 1 13.54-4.44c0-1.05 0-2.06 0-3.07a5.56 5.56 0 0 1 5.07-5.44 5.44 5.44 0 0 1 5.83 4.4 22.31 22.31 0 0 1 0 3.82c21.23 4.81 32.76 17.8 34.88 39.38l.78.09a5.51 5.51 0 0 1 5.11 5.25 5.3 5.3 0 0 1 -4.75 5.65c-3.19.23-6.4.13-9.6.11a1.67 1.67 0 1 1 .13-3.34h7.92a6.11 6.11 0 0 0 1.35-.12 2.1 2.1 0 0 0 -.23-4.1 7.13 7.13 0 0 0 -1.13 0h-71.26a2.44 2.44 0 0 0 -.1.24l2.9 1.93a23.23 23.23 0 0 0 2.06 1.39 4.4 4.4 0 0 0 1.94.61q23.75.06 47.49 0a9 9 0 0 1 1.47.06 1.5 1.5 0 0 1 1.36 1.55 1.53 1.53 0 0 1 -1.21 1.68 5.07 5.07 0 0 1 -1.23.1q-45.18 0-90.35 0a2.74 2.74 0 0 1 -2.44-1.07c0-.71 0-1.39 0-2.06zm106.39-8c-.28-2.27-.41-4.49-.84-6.64-4.79-24.07-31.87-36.69-53.47-25a2.57 2.57 0 0 0 -1.6 2.58 20.26 20.26 0 0 1 -14.11 19.2c-.25.08-.48.2-.67.28v9.53zm-98.05-62.77v32.51h2.23v-1.25c0-3.62 0-7.23 0-10.86 0-2.05 1-3 3.07-3.06h2.53v-17.34zm8.66 64.1a35 35 0 0 1 4 1.61c1.72 1 1.66 1 3.27-.08a3.08 3.08 0 0 0 .8-.61 2 2 0 0 0 .49-1q.06-5.08 0-10.17a1.21 1.21 0 0 0 -.63-.85c-1.73-.88-3.5-1.69-5.26-2.51a1.18 1.18 0 0 0 -.8-.14c-1.54.61-1.82 1.07-1.82 2.74v11.06zm-12.3-28.09c0 2.07-.11 4.1 0 6.11a7.36 7.36 0 0 0 5.43 6.62 7.13 7.13 0 0 0 6.27-1 21.22 21.22 0 0 1 -5.71-11.76zm7.56-54.9c-1.12 2.08-2.2 3.87-3.07 5.76a2.83 2.83 0 0 0 1.13 3.58c.71-.39 1.31-1 1.88-1s1.3.61 2 1a2.93 2.93 0 0 0 1.1-3.61c-.85-1.87-1.93-3.67-3.04-5.73zm-8.51 89.34h1.35c3.42 0 6.86-.12 10.28 0 1.73.09 2.88-.66 4.27-1.88a11.64 11.64 0 0 0 -2.72-.78c-3.12-.08-6.25-.08-9.37 0a4.3 4.3 0 0 0 -3.81 2.66zm9.78-6.11v-11.89h-2.53v11.9zm58.22-41.09c0-.87 0-1.75 0-2.63a2.09 2.09 0 0 0 -2-2.09 2 2 0 0 0 -2.23 1.79 26 26 0 0 0 0 2.93z" fill="url(#a)"/><path d="m35.57 70.09h12.32c1.9 0 2.42.55 2.37 2.42a15 15 0 0 1 -13.91 14.37 14.87 14.87 0 0 1 -15.28-12.59 15.88 15.88 0 0 1 -.19-1.69c-.09-2 .43-2.52 2.38-2.52zm-11.08 3.46c.27 5.58 6.25 10.49 11.94 9.93 5.32-.53 10.65-5.74 10.09-9.93z" fill="url(#b)"/><path d="m88.57 75.49v3h3v-3z" fill="url(#c)"/><path d="m82.17 71.71h-2.94v3h2.94z" fill="url(#d)"/><path d="m83.69 86.23h3v-3h-3z" fill="url(#e)"/><path d="m94.58 87.28h2.94v-3h-2.94z" fill="url(#f)"/><path d="m101.39 90.78v2.94h3v-2.94z" fill="url(#g)"/><path d="m96.81 93.8h-3v3h3z" fill="url(#h)"/><path d="m84.68 96.81h2.94v-3h-2.94z" fill="url(#i)"/></svg>