<svg enable-background="new 0 0 126.77 126.75" viewBox="0 0 126.77 126.75" xmlns="http://www.w3.org/2000/svg" xmlns:xlink="http://www.w3.org/1999/xlink"><linearGradient id="a"><stop offset="0" stop-color="#c93d1c" stop-opacity=".9707"/><stop offset="1" stop-color="#e4972f" stop-opacity=".9707"/></linearGradient><linearGradient id="b" gradientUnits="userSpaceOnUse" x1="0" x2="126.7684" xlink:href="#a" y1="63.3757" y2="63.3757"/><linearGradient id="c" gradientUnits="userSpaceOnUse" x1="54.6304" x2="58.63" xlink:href="#a" y1="81.1433" y2="81.1433"/><linearGradient id="d" gradientUnits="userSpaceOnUse" x1="67.1951" x2="71.1127" xlink:href="#a" y1="80.5953" y2="80.5953"/><linearGradient id="e" gradientUnits="userSpaceOnUse" x1="57.3322" x2="61.2621" xlink:href="#a" y1="94.0602" y2="94.0602"/><linearGradient id="f" gradientUnits="userSpaceOnUse" x1="45.0669" x2="49.003" xlink:href="#a" y1="96.1041" y2="96.1041"/><linearGradient id="g" gradientUnits="userSpaceOnUse" x1="35.8674" x2="39.8423" xlink:href="#a" y1="103.2296" y2="103.2296"/><linearGradient id="h" gradientUnits="userSpaceOnUse" x1="46.2125" x2="50.1699" xlink:href="#a" y1="107.9388" y2="107.9388"/><linearGradient id="i" gradientUnits="userSpaceOnUse" x1="57.4669" x2="61.3844" xlink:href="#a" y1="106.3122" y2="106.3122"/><linearGradient id="j" gradientUnits="userSpaceOnUse" x1="91.804" x2="112.6234" xlink:href="#a" y1="87.8792" y2="87.8792"/><path d="m119.63 93.96c1.71 1.24 3.36 2.3 4.84 3.56 1.6 1.36 2.34 3.17 2.28 5.33-.07 2.21-.09 4.43.01 6.64.11 2.47-.87 4.37-2.66 5.94-2.75 2.4-6.04 3.78-9.43 4.95-6.91 2.37-14.07 3.64-21.29 4.56-11.51 1.47-23.07 2.01-34.65 1.76-13.67-.3-27.28-1.29-40.63-4.55-4.18-1.02-8.28-2.29-12.06-4.4-1.18-.66-2.3-1.46-3.34-2.32-1.84-1.52-2.79-3.46-2.68-5.92.1-2.17.08-4.34 0-6.51-.09-2.31.8-4.13 2.45-5.65 2.2-2.03 4.84-3.3 7.6-4.32.82-.3 1.17-.75 1.38-1.58 2.26-8.87 7.92-14.34 16.78-16.48 1.06-.26 1.66-.67 1.77-1.79.19-1.97.63-3.94.66-5.91.08-6.6-.01-13.2.05-19.8.03-2.79-.92-5.06-2.95-6.92-9.02-8.24-9.63-24.5-2.06-33.86 7.36-9.1 19.75-8.82 26.79.59 7.02 9.38 6.38 25.18-2.6 33.36-2 1.82-2.94 4.09-2.87 6.82.07 2.89.02 5.78.02 9.12 1.03-.81 1.79-1.42 2.63-2.09.3.28.64.58.96.9 3.8 3.79 7.58 7.59 11.39 11.37.33.33.82.68 1.25.71 4.06.29 8.13.51 12.33.75.01-.11.05-.51.05-.91 0-5.49.01-10.99 0-16.48-.01-3.96-1.98-6.68-5.74-7.96-5.48-1.86-8.55-6.15-8.56-11.96-.01-8.22-.01-16.44.01-24.65-.01-2.76 1.64-5.06 4.1-5.91 2.44-.84 5.15-.06 6.78 1.97.97 1.21 1.37 2.61 1.36 4.16-.02 6.39-.01 12.77-.01 19.16 0 .38-.04.77.03 1.15.18 1.11.84 1.75 1.97 1.82 1.05.07 1.94-.74 2.07-1.85.05-.38.02-.77.02-1.15 0-6.51-.02-13.03.02-19.54.02-3 2.18-5.45 5.13-5.98 2.81-.5 5.73 1.17 6.7 3.93.29.82.4 1.75.4 2.62.03 6.3.02 12.6.02 18.91 0 .34-.02.68.01 1.02.09 1.22.91 2.04 2.02 2.05s1.98-.81 2.04-2.02c.05-1.02.02-2.04.02-3.07 0-5.83-.03-11.67.02-17.5.02-2.99 2.21-5.44 5.16-5.95 2.77-.47 5.63 1.15 6.63 3.85.29.78.44 1.65.44 2.49.03 8.3.04 16.61.01 24.91-.02 5.3-3.24 9.69-8.26 11.39-4.16 1.41-6.04 4.02-6.04 8.4v21.36c7.44-4.17 14.77-4.3 21.5 1 6.75 5.31 8.47 12.43 6.13 20.48zm-100.97 15.99c17.57 4.05 35.2 4.79 53.05 4.17-.27-.48-.68-.71-1-1.04-4.44-4.68-6.18-10.23-4.93-16.55 1.7-8.65 9.22-14.72 18.04-14.79.41 0 1.02-.13 1.18-.41.7-1.24 1.27-2.56 1.88-3.84-.07-.09-.1-.18-.17-.21-7.66-4.47-15.99-6.05-24.76-5.68-.3.01-.64.21-.89.41-2.76 2.24-5.9 3.69-9.38 4.39-1 .2-1.36.71-1.61 1.66-.45 1.72-.92 3.47-1.7 5.06-3.14 6.39-8.25 10.37-15.2 11.91-1.08.24-1.68.68-1.75 1.8-.02.33-.15.66-.24.99-1.16 4.55-3.62 8.27-7.37 11.51-1.42-1.47-2.8-2.89-4.31-4.44-.29 1.71-.55 3.28-.84 5.06zm16.12-46.6c2.23-2.4 4.52-4.28 7.27-5.48.71-.31.9-.7.89-1.43-.04-3.19-.01-6.38-.02-9.57-.01-3.41 1.25-6.29 3.61-8.72.74-.76 1.53-1.49 2.2-2.31 5.45-6.67 5.91-17.99 1.05-25.28-5.73-8.63-16.18-8.62-21.88.05-5.13 7.8-4.44 20.54 2.76 27.04 2.91 2.63 4.21 5.96 4.14 9.9-.08 4.76-.02 9.53-.02 14.3zm53.12 9.66c0-.49 0-.94 0-1.39 0-6.98-.01-13.96 0-20.95.01-5.55 3.15-9.89 8.41-11.67 3.98-1.35 5.89-4.03 5.9-8.24 0-7.92 0-15.84 0-23.76 0-.38.03-.78-.04-1.15-.21-1.04-.86-1.65-1.93-1.72-1-.07-1.89.69-2.05 1.73-.07.42-.04.85-.04 1.27 0 6.26 0 12.52-.01 18.78 0 .64 0 1.29-.14 1.9-.67 3.15-3.53 5.22-6.66 4.89-3.11-.33-5.46-2.95-5.48-6.19-.02-6.39-.01-12.77-.01-19.16 0-.34.01-.68 0-1.02-.06-1.31-.86-2.19-2-2.2-1.15-.02-1.98.85-2.05 2.15-.02.3-.01.6-.01.89v18.78c0 .59 0 1.2-.11 1.78-.63 3.15-3.44 5.26-6.59 4.99-3.11-.27-5.55-2.89-5.57-6.1-.03-6.51-.01-13.03-.01-19.54 0-.43.04-.87-.05-1.27-.24-1.03-.91-1.65-1.98-1.65s-1.74.63-1.98 1.66c-.09.41-.05.85-.05 1.27v23.37c0 4.66 1.78 7.08 6.2 8.66 4.36 1.56 7.04 4.67 7.87 9.23.27 1.49.22 3.05.22 4.58.02 5.57.01 11.15.01 16.64 2.74 1.15 5.38 2.27 8.15 3.44zm-83.6 35.64c-.45 1.85.12 3.22 1.54 4.21.94.65 1.91 1.28 2.94 1.78 4.16 2 8.6 3.18 13.09 4.14 11.99 2.57 24.15 3.5 36.37 3.76 10.73.23 21.44-.19 32.12-1.43 7.82-.91 15.6-2.08 23.06-4.67 2.58-.9 5.03-2.23 7.44-3.55 1.54-.85 2.06-2.36 1.61-4.24-4.26 2.67-8.89 4.17-13.64 5.35-12.87 3.19-26 4.22-39.2 4.56-10.52.27-21.02-.08-31.49-1.19-6.9-.73-13.75-1.74-20.48-3.44-4.66-1.17-9.21-2.66-13.36-5.28zm79.41-22.75c-.72.09-1.3.16-1.89.23-6.58.86-11.55 6.2-12.2 13.11-.58 6.14 3.66 12.44 9.66 14.37.4.13.83.24 1.24.22 1.99-.13 3.98-.37 5.98-.46 2.64-.12 5-.78 6.91-2.74 1.43-1.46 2.67-3.01 3.42-4.89-.2-.15-.26-.22-.33-.25-5.34-1.9-9.11-5.46-11.41-10.64-.17-.38-.9-.73-1.38-.74-2.97-.02-5.45 2.26-5.92 5.31-.42 2.75 1.48 5.7 4.23 6.52.57.17 1.16.25 1.78.39v4.02c-4.75.4-9.51-3.71-10.19-8.78-.36-2.67.23-5.17 1.82-7.37 2.02-2.8 4.83-4.17 8.28-4.39 0-1.28 0-2.5 0-3.91zm32.62 1.98c-.22-7.85-6.12-14.02-14.08-14.05-7.92-.03-14.14 6.14-14.11 14.1.03 8.17 6.45 14.14 14.16 14.05 8.17-.08 13.87-6.46 14.03-14.1zm-63.89-24.68c-.51-.54-.71-.76-.92-.97-.57-.57-1.1-1.2-1.74-1.69-.32-.24-.86-.4-1.25-.32-7.73 1.63-12.68 6.2-14.44 13.98-.62 2.73-2.18 4.23-4.88 4.85-7.78 1.77-12.32 6.75-13.96 14.47-.07.33-.02.8.18 1.05.75.95 1.57 1.84 2.37 2.75.18-.07.35-.14.53-.21.43-1.36.91-2.7 1.27-4.08 1.39-5.34 4.72-8.72 10.06-10.07 1.95-.49 3.83-1.03 5.36-2.47 1.7-1.59 2.46-3.59 2.99-5.78 1.31-5.41 4.7-8.79 10.1-10.17 1.38-.34 2.72-.83 4.33-1.34zm3.3 3.27c-2.41.85-4.47 1.72-6.62 2.3-3.67 1-5.88 3.27-6.92 6.92-.57 2.01-1.28 4.08-2.4 5.83-2.09 3.28-5.37 4.91-9.15 5.72-3.61.77-5.82 3.13-6.79 6.69-.37 1.35-.77 2.69-1.23 4.01-.33.92-1.26 1.91-1.07 2.65.23.89 1.37 1.54 2.12 2.3.06.06.15.07.29.13 1.8-2.12 2.78-4.62 3.32-7.32.53-2.68 2.12-4.2 4.79-4.8 7.5-1.69 12.08-6.33 13.91-13.8.28-1.15.91-2.27 1.6-3.24.99-1.4 2.71-1.47 4.21-1.86 2.31-.6 4.44-1.53 6.24-3.07-.9-.97-1.71-1.83-2.3-2.46zm42.56 45.39c-.05-.03-.01.01.02.01.5-.07 1.01-.12 1.51-.21 5.99-1.09 11.95-2.29 17.51-4.86 1.63-.75 3.15-1.83 4.53-3 1.12-.95 1.11-2.02.05-3-1.25-1.15-2.7-2.08-4.07-3.11-4.08 5.71-9.27 8.62-16 8.63-.28 0-.7.17-.82.39-.95 1.7-1.83 3.43-2.73 5.15zm-83.85-2.8c.61-2.71 1.13-4.93 1.58-7.17.06-.3-.13-.74-.35-.98-1.17-1.23-2.38-2.43-3.6-3.61-.21-.2-.64-.44-.84-.36-2.4.98-4.81 1.96-6.56 4-.76.88-.71 1.81 0 2.66.46.55.96 1.14 1.58 1.46 2.66 1.36 5.37 2.63 8.19 4z" fill="url(#b)"/><path d="m58.63 79.15v3.99c-1.35 0-2.64 0-4 0 0-1.33 0-2.62 0-3.99z" fill="url(#c)"/><path d="m67.2 78.61h3.92v3.96c-1.23 0-2.52 0-3.92 0 0-1.22 0-2.51 0-3.96z" fill="url(#d)"/><path d="m61.26 96.05c-1.31 0-2.57 0-3.93 0 0-1.29 0-2.58 0-3.98h3.93z" fill="url(#e)"/><path d="m49 98.09c-1.32 0-2.58 0-3.94 0 0-1.3 0-2.59 0-3.98h3.94z" fill="url(#f)"/><path d="m39.84 101.26v3.93c-1.29 0-2.58 0-3.97 0 0-1.25 0-2.54 0-3.93z" fill="url(#g)"/><path d="m46.21 105.94h3.96v4c-1.29 0-2.58 0-3.96 0 0-1.29 0-2.58 0-4z" fill="url(#h)"/><path d="m61.38 108.29c-1.29 0-2.55 0-3.92 0 0-1.27 0-2.56 0-3.96h3.92z" fill="url(#i)"/><path d="m102.19 98.25c-5.35.32-10.44-4.69-10.39-10.46.05-5.25 4.74-10.33 10.5-10.29 5.4.03 10.35 4.84 10.32 10.46-.02 5.43-4.85 10.61-10.43 10.29zm6.06-10.32c.02-3.2-2.79-6.03-6.01-6.06-3.19-.03-6.05 2.81-6.06 6.01-.01 3.21 2.79 6.03 6.01 6.06 3.19.03 6.03-2.79 6.06-6.01z" fill="url(#j)"/></svg>