<svg viewBox="0 0 126.82 127.76" xmlns="http://www.w3.org/2000/svg" xmlns:xlink="http://www.w3.org/1999/xlink"><linearGradient id="a" gradientTransform="matrix(1 0 0 -1 0 129)" gradientUnits="userSpaceOnUse" x1="5.45" x2="120.44" y1="65.12" y2="65.12"><stop offset="0" stop-color="#c93d1c" stop-opacity=".97"/><stop offset="1" stop-color="#e4972f" stop-opacity=".97"/></linearGradient><linearGradient id="b" x1="55" x2="58.62" xlink:href="#a" y1="49" y2="49"/><linearGradient id="c" x1="66.4" x2="69.95" xlink:href="#a" y1="49.51" y2="49.51"/><linearGradient id="d" x1="57.45" x2="61.01" xlink:href="#a" y1="37.29" y2="37.29"/><linearGradient id="e" x1="46.32" x2="49.9" xlink:href="#a" y1="35.44" y2="35.44"/><linearGradient id="f" x1="37.98" x2="41.58" xlink:href="#a" y1="28.97" y2="28.97"/><linearGradient id="g" x1="47.36" x2="50.95" xlink:href="#a" y1="24.7" y2="24.7"/><linearGradient id="h" x1="57.57" x2="61.13" xlink:href="#a" y1="26.18" y2="26.18"/><linearGradient id="i" x1="88.72" x2="107.6" xlink:href="#a" y1="42.89" y2="42.89"/><path d="m116.86 127.26h-106.86a9.42 9.42 0 0 1 -9.5-9.37v-108.03a9.41 9.41 0 0 1 9.5-9.36h106.9a9.41 9.41 0 0 1 9.46 9.36v108a9.41 9.41 0 0 1 -9.46 9.37z" fill="#fff" stroke="#3c5377" stroke-miterlimit="10"/><path d="m114 91.62c1.55 1.13 3.05 2.09 4.39 3.23a5.83 5.83 0 0 1 2.07 4.84c-.06 2-.08 4 0 6a6.47 6.47 0 0 1 -2.46 5.41 24.93 24.93 0 0 1 -8.56 4.49 97.3 97.3 0 0 1 -19.31 4.14 211.77 211.77 0 0 1 -31.43 1.59c-12.41-.27-24.75-1.17-36.86-4.13a42.73 42.73 0 0 1 -10.94-4 20.45 20.45 0 0 1 -3-2.1 6.27 6.27 0 0 1 -2.43-5.37c.09-2 .07-3.94 0-5.91a6.29 6.29 0 0 1 2.21-5.11 20.11 20.11 0 0 1 6.89-3.92 1.77 1.77 0 0 0 1.25-1.44c2.05-8 7.19-13 15.23-15 1-.23 1.5-.6 1.6-1.62.17-1.79.57-3.57.6-5.36.07-6 0-12 0-18a8 8 0 0 0 -2.68-6.28c-8.18-7.48-8.74-22.23-1.87-30.72 6.68-8.25 17.92-8 24.3.54s5.79 22.84-2.35 30.26a7.71 7.71 0 0 0 -2.61 6.19c.07 2.62 0 5.24 0 8.27.94-.73 1.62-1.29 2.39-1.89.27.25.58.52.87.81 3.51 3.53 6.94 6.98 10.4 10.46a2.06 2.06 0 0 0 1.13.64c3.69.26 7.38.46 11.19.68 0-.1 0-.46 0-.82v-15a7.11 7.11 0 0 0 -5.21-7.22 10.84 10.84 0 0 1 -7.77-10.85q0-11.18 0-22.36a5.53 5.53 0 0 1 9.96-3.58 5.82 5.82 0 0 1 1.24 3.77v17.38a6.14 6.14 0 0 0 0 1.05 1.84 1.84 0 0 0 3.67 0 9.07 9.07 0 0 0 0-1c0-5.91 0-11.82 0-17.73a5.54 5.54 0 0 1 10.75-1.96 7.35 7.35 0 0 1 .34 2.41v17.15.93a1.86 1.86 0 0 0 1.83 1.86 1.82 1.82 0 0 0 1.85-1.84c0-.92 0-1.85 0-2.78 0-5.29 0-10.59 0-15.88a5.53 5.53 0 0 1 10.78-1.85 6.68 6.68 0 0 1 .4 2.26q0 11.29 0 22.59a10.77 10.77 0 0 1 -7.49 10.34c-3.78 1.28-5.48 3.64-5.48 7.62v19.33c6.75-3.79 13.4-3.91 19.5.9s7.69 11.28 5.56 18.58zm-91.63 14.51c15.93 3.67 31.93 4.34 48.12 3.78a4.3 4.3 0 0 0 -.91-.94 16.27 16.27 0 0 1 -4.47-15 16.66 16.66 0 0 1 16.37-13.43c.37 0 .92-.12 1.07-.38.63-1.12 1.15-2.32 1.7-3.48-.06-.08-.09-.16-.15-.19a40.07 40.07 0 0 0 -22.46-5.15 1.54 1.54 0 0 0 -.81.37 19.3 19.3 0 0 1 -8.51 4c-.91.18-1.23.65-1.46 1.51a25 25 0 0 1 -1.54 4.59 19.36 19.36 0 0 1 -13.79 10.8c-1 .22-1.53.62-1.59 1.63a4.92 4.92 0 0 1 -.22.9 20 20 0 0 1 -6.72 10.42l-3.91-4c-.23 1.53-.46 2.95-.72 4.57zm14.63-42.28a20 20 0 0 1 6.59-5 1.16 1.16 0 0 0 .81-1.3c0-2.89 0-5.78 0-8.68a11 11 0 0 1 3.25-7.87c.67-.69 1.39-1.35 2-2.09 5-6 5.37-16.32 1-22.94-5.25-7.84-14.73-7.83-19.9.03-4.66 7.07-4 18.63 2.5 24.53a11.26 11.26 0 0 1 3.76 9c-.08 4.32 0 8.64 0 13zm48.19 8.77v-1.26q0-9.51 0-19a10.79 10.79 0 0 1 7.63-10.59c3.61-1.22 5.34-3.65 5.35-7.47v-21.57a5.18 5.18 0 0 0 0-1 1.78 1.78 0 0 0 -1.75-1.56 1.82 1.82 0 0 0 -1.86 1.57 7.37 7.37 0 0 0 0 1.15q0 8.52 0 17a7.54 7.54 0 0 1 -.13 1.72 5.56 5.56 0 0 1 -11-1.18c0-5.79 0-11.58 0-17.38 0-.31 0-.62 0-.92a1.89 1.89 0 0 0 -1.82-2 1.87 1.87 0 0 0 -1.86 1.95v.81 17a8.76 8.76 0 0 1 -.1 1.62 5.57 5.57 0 0 1 -11-1c0-5.9 0-11.82 0-17.72a5.58 5.58 0 0 0 0-1.16 1.83 1.83 0 0 0 -3.59 0 5.51 5.51 0 0 0 0 1.15v21.22c0 4.22 1.62 6.42 5.63 7.85a10.42 10.42 0 0 1 7.14 8.38 23.86 23.86 0 0 1 .2 4.15v15.1c2.49 1 4.89 2 7.4 3.12zm-75.85 32.38a3.31 3.31 0 0 0 1.4 3.82 20 20 0 0 0 2.66 1.61 52.14 52.14 0 0 0 11.88 3.76 175 175 0 0 0 33 3.41 211.76 211.76 0 0 0 29.14-1.3c7.09-.82 14.15-1.89 20.92-4.24a44.83 44.83 0 0 0 6.75-3.22 3.16 3.16 0 0 0 1.46-3.84 41.89 41.89 0 0 1 -12.37 4.85c-11.68 2.9-23.59 3.83-35.57 4.14a218 218 0 0 1 -28.61-1.13 132.46 132.46 0 0 1 -18.58-3.12 41 41 0 0 1 -12.08-4.74zm72-20.64-1.72.21a12.85 12.85 0 0 0 -2.3 24.93 3.12 3.12 0 0 0 1.12.2c1.81-.12 3.61-.34 5.43-.42a8.8 8.8 0 0 0 6.27-2.49 13.71 13.71 0 0 0 3.1-4.43 3 3 0 0 0 -.3-.23 17.22 17.22 0 0 1 -10.35-9.65 1.65 1.65 0 0 0 -1.25-.67 5.5 5.5 0 0 0 -5.34 4.76 5.55 5.55 0 0 0 3.83 5.92c.52.15 1.06.23 1.62.35v3.65c-4.31.36-8.63-3.37-9.25-8a9 9 0 0 1 1.66-6.68 9.5 9.5 0 0 1 7.51-4zm29.66 1.75a12.74 12.74 0 0 0 -12.8-12.75 12.77 12.77 0 1 0 0 25.54 12.75 12.75 0 0 0 12.8-12.79zm-58-22.39c-.46-.49-.64-.69-.84-.88a16.3 16.3 0 0 0 -1.56-1.54 1.65 1.65 0 0 0 -1.14-.3c-7 1.48-11.5 5.63-13.1 12.69a5.34 5.34 0 0 1 -4.42 4.4c-7.06 1.6-11.18 6.12-12.67 13.12a1.28 1.28 0 0 0 .16 1c.69.87 1.43 1.67 2.15 2.5l.49-.19c.39-1.23.82-2.45 1.15-3.7a11.87 11.87 0 0 1 9.12-9.14 10.27 10.27 0 0 0 4.87-2.24 10 10 0 0 0 2.71-5.24 11.79 11.79 0 0 1 9.16-9.23c1.25-.35 2.47-.79 3.92-1.25zm3 3c-2.18.77-4 1.56-6 2.09a8.4 8.4 0 0 0 -6.28 6.28 20 20 0 0 1 -2.18 5.29c-1.89 3-4.87 4.45-8.3 5.19a7.79 7.79 0 0 0 -6.16 6.06c-.33 1.23-.7 2.44-1.11 3.64-.3.84-1.15 1.73-1 2.41s1.24 1.39 1.92 2.08c0 .06.14.07.26.12a14.23 14.23 0 0 0 3-6.64 5.17 5.17 0 0 1 4.35-4.35c6.8-1.54 11-5.75 12.62-12.52a8.69 8.69 0 0 1 1.45-2.94c.9-1.27 2.46-1.34 3.82-1.69a13.8 13.8 0 0 0 5.66-2.79zm38.61 41.18s0 0 0 0c.45-.06.92-.11 1.37-.19 5.43-1 10.84-2.08 15.89-4.41a18.49 18.49 0 0 0 4.1-2.72 1.62 1.62 0 0 0 .05-2.72 44.37 44.37 0 0 0 -3.67-2.86c-3.7 5.18-8.41 7.81-14.52 7.82a1 1 0 0 0 -.74.36c-.86 1.55-1.66 3.12-2.48 4.68zm-76.06-2.54c.55-2.46 1-4.47 1.43-6.5a1.2 1.2 0 0 0 -.32-.89c-1.06-1.12-2.16-2.21-3.26-3.28-.19-.18-.58-.4-.77-.33-2.17.89-4.36 1.78-6 3.63a1.72 1.72 0 0 0 0 2.42 5 5 0 0 0 1.44 1.32c2.46 1.19 4.93 2.35 7.48 3.59z" fill="url(#a)"/><path d="m58.62 78.19v3.62h-3.62v-3.62z" fill="url(#b)"/><path d="m66.4 77.7h3.6v3.59h-3.6z" fill="url(#c)"/><path d="m61 93.52h-3.55v-3.61h3.55z" fill="url(#d)"/><path d="m49.89 95.37h-3.58v-3.61h3.58z" fill="url(#e)"/><path d="m41.58 98.24v3.57h-3.58v-3.57z" fill="url(#f)"/><path d="m47.36 102.49h3.64v3.63h-3.64z" fill="url(#g)"/><path d="m61.12 104.62h-3.56v-3.62h3.56z" fill="url(#h)"/><path d="m98.14 95.51c-4.85.29-9.47-4.25-9.42-9.49a9.44 9.44 0 0 1 18.88.16c-.01 4.92-4.4 9.62-9.46 9.33zm5.5-9.36a5.48 5.48 0 1 0 -5.5 5.45 5.63 5.63 0 0 0 5.5-5.45z" fill="url(#i)"/></svg>