<svg viewBox="0 0 126.82 127.76" xmlns="http://www.w3.org/2000/svg" xmlns:xlink="http://www.w3.org/1999/xlink"><linearGradient id="a" gradientTransform="matrix(1 0 0 -1 0 -145.82)" gradientUnits="userSpaceOnUse" x1="6.62" x2="119.25" y1="-209.7" y2="-209.7"><stop offset="0" stop-color="#c93d1c" stop-opacity=".97"/><stop offset="1" stop-color="#e4972f" stop-opacity=".97"/></linearGradient><linearGradient id="b" x1="35.2" x2="50.68" xlink:href="#a" y1="-241.68" y2="-241.68"/><linearGradient id="c" x1="86.69" x2="109.1" xlink:href="#a" y1="-199.79" y2="-199.79"/><linearGradient id="d" x1="70.41" x2="73.98" xlink:href="#a" y1="-249.55" y2="-249.55"/><linearGradient id="e" x1="29.36" x2="32.94" xlink:href="#a" y1="-182.09" y2="-182.09"/><linearGradient id="f" x1="40.65" x2="44.22" xlink:href="#a" y1="-182.09" y2="-182.09"/><linearGradient id="g" x1="18.43" x2="22.01" xlink:href="#a" y1="-182.09" y2="-182.09"/><linearGradient id="h" x1="29.52" x2="33.13" xlink:href="#a" y1="-193.2" y2="-193.2"/><linearGradient id="i" x1="29.52" x2="33.13" xlink:href="#a" y1="-170.99" y2="-170.99"/><linearGradient id="j" x1="36.64" x2="41.72" xlink:href="#a" y1="-189.95" y2="-189.95"/><linearGradient id="k" x1="20.93" x2="26.01" xlink:href="#a" y1="-174.24" y2="-174.24"/><linearGradient id="l" x1="36.64" x2="41.72" xlink:href="#a" y1="-174.24" y2="-174.24"/><linearGradient id="m" x1="20.93" x2="26.01" xlink:href="#a" y1="-189.95" y2="-189.95"/><linearGradient id="n" x1="61.14" x2="64.72" xlink:href="#a" y1="-174.21" y2="-174.21"/><linearGradient id="o" x1="57.46" x2="61.03" xlink:href="#a" y1="-166.14" y2="-166.14"/><linearGradient id="p" x1="50.34" x2="53.91" xlink:href="#a" y1="-161.77" y2="-161.77"/><linearGradient id="q" x1="58.74" x2="62.32" xlink:href="#a" y1="-182.27" y2="-182.27"/><path d="m116.86 127.26h-106.86a9.42 9.42 0 0 1 -9.5-9.37v-108.03a9.41 9.41 0 0 1 9.5-9.36h106.9a9.41 9.41 0 0 1 9.46 9.36v108a9.41 9.41 0 0 1 -9.46 9.37z" fill="#fff" stroke="#3c5377" stroke-miterlimit="10"/><path d="m62.45 118.31c-4.65.89-9.29 1.92-14 2.61-10.83 1.61-20.82-.93-30-6.74-3.09-2-5.85-4.4-8.75-6.63-1.67-1.28-1.89-2.66-.6-4.42 1.9-2.59 3.72-5.25 5.42-8a2.9 2.9 0 0 0 .18-2.48c-9.15-15.67-10.53-32-4.28-49a4.83 4.83 0 0 0 .16-2.36c-2.55-14.89 9-27.55 24.15-26.59a3.77 3.77 0 0 0 2.64-1c7.24-7.41 16.45-9.25 26.14-5.31 1.75.71 3.79.68 5.71 1 16.75 2.48 29.64 11 39 25a10.15 10.15 0 0 0 2.27 2.4 21.2 21.2 0 0 1 7.12 25.21 3.67 3.67 0 0 0 .13 3.32 15.64 15.64 0 0 1 -3.65 18.29 9.37 9.37 0 0 0 -2.09 2.8 55.15 55.15 0 0 1 -49.43 32.46c-.05-.18-.08-.37-.12-.56zm38.63-30.7c-1.92 2.46-3.32 5-5.35 6.7-3.38 2.92-7.15 5.38-10.79 8-.61.43-1.32 1-2 1-1 0-2.41-.32-2.76-1s.22-2 .71-2.84c.32-.56 1.18-.81 2-1.35-7.69-2.12-12.53-6.79-12.98-14.75s3.88-13.18 11.22-16.12c-4.09-5.59-5.59-11.68-4-18.33s5.87-11.42 12.16-14.57a38.7 38.7 0 0 0 -12.76-8c.38 7.27-1.61 13.36-6.54 18.33s-11.17 7-18.35 6.64c1.22 5.19 2.37 10.14 3.54 15.08.77 3.29.23 3.82-3.11 4.16a4.29 4.29 0 0 0 -3 2.08 3.51 3.51 0 0 0 .82 3.29 4.27 4.27 0 0 0 3.61.46c3.1-1.21 3.84-1 4.62 2.36q2.75 11.69 5.5 23.35c.27 1.13.4 2.15 2.06 2.4a2 2 0 0 1 .7 3.51 2.08 2.08 0 0 0 -.72 2.68c.35 1.12.5 2.3.74 3.42 14.85-.2 36.82-14.9 39.49-26.45zm-81.88 8.85a46.35 46.35 0 0 0 13.1 7.54c1.45.51 2.42 1.45 1.85 3s-2 1.84-3.34 1.19c-3.56-1.72-7.07-3.55-10.54-5.44a39.74 39.74 0 0 1 -3.69-2.53c-1.12 1.64-2.11 3.09-3.1 4.56.49.45.75.71 1 .94.75.62 1.5 1.25 2.27 1.83 13.25 10 27.48 12.18 42.86 5.46 1.3-.57 1.73-1.14 1.34-2.68-1.76-6.95-3.36-13.95-5-20.93-.65-2.74-1.29-5.47-1.92-8.14-5.4.23-8.57-1.75-9.64-5.83s.78-7 6-9.76l-2.62-10.9-11.54 16.86c3.46 3.72 4.11 7.34 2 10.65-2.21 3.49-5.67 4.3-11 2.49zm13.25-41.4a18.17 18.17 0 0 0 18.22-17.79 17.95 17.95 0 1 0 -18.22 17.79zm20.81-8.43c8.17.67 16-5.05 18.18-13.18a18 18 0 0 0 -9.82-20.93c-6.95-3.23-16.28-1.48-20 3.76 12.05 5.96 16.38 18.34 11.64 30.35zm45 24.16a16.82 16.82 0 1 0 -17.21-16.26 16.85 16.85 0 0 0 17.17 16.26zm-2.2 15.08a16.64 16.64 0 0 1 -8.3-12.34c-.28-1.75-2-2.25-3.68-2.1-5.18.43-9.58 5.23-9.77 10.63a11.28 11.28 0 0 0 9.09 11.46 10.94 10.94 0 0 0 12.66-7.65zm-56.4-27.26a24.44 24.44 0 0 1 -17.75-1.73 40 40 0 0 0 2.8 23.19c1.78-1.77 3.13-1.53 4.7.14a3.79 3.79 0 0 0 3.34.79 3.78 3.78 0 0 0 2-2.78 4 4 0 0 0 -1.78-3c-2.92-1.76-3.16-2.28-1.21-5.12zm-21.37 31.14a24.62 24.62 0 0 1 1.93-2.7c1.49-1.57 1.37-3 .48-5a43.46 43.46 0 0 1 -3.21-26.25c.12-.71.29-1.66-.06-2.13-1.18-1.58-2.59-3-4.09-4.67-3.95 14.35-2.49 27.72 4.95 40.75zm95.71-21.67c-5.93 6.25-13 8.21-21.17 6.71a11.11 11.11 0 0 0 14 7.91c5.94-1.78 9.17-8.11 7.17-14.62zm-12.39-35.27c-8.09-9.87-17.82-15.92-30-18.52 1.19 2.2 2.16 4.12 3.27 5.95a3 3 0 0 0 1.54 1.12 46.43 46.43 0 0 1 17 10.58 2.93 2.93 0 0 0 1.68.84c1.98.1 3.98.03 6.51.03z" fill="url(#a)"/><path d="m42.91 103.59a7.8 7.8 0 0 1 -7.71-7.75 7.88 7.88 0 0 1 7.8-7.72 7.74 7.74 0 1 1 -.06 15.47zm3.23-7.67a3.21 3.21 0 0 0 -3.26-3.28 3.3 3.3 0 0 0 -3.17 3.17 3.24 3.24 0 0 0 3.29 3.26 3.14 3.14 0 0 0 3.14-3.15z" fill="url(#b)"/><path d="m97.84 42.73a11.24 11.24 0 1 1 -11.15 11.18 11.33 11.33 0 0 1 11.15-11.18zm.16 4.51a6.73 6.73 0 1 0 6.6 6.82 6.74 6.74 0 0 0 -6.6-6.82z" fill="url(#c)"/><path d="m74 101.92h-3.6v3.61h3.6z" fill="url(#d)"/><path d="m32.94 34.47h-3.58v3.61h3.58z" fill="url(#e)"/><path d="m44.22 34.47h-3.57v3.61h3.57z" fill="url(#f)"/><path d="m22 34.47h-3.57v3.61h3.57z" fill="url(#g)"/><path d="m33.13 49.17v-3.58h-3.61v3.58z" fill="url(#h)"/><path d="m33.13 27v-3.62h-3.61v3.62z" fill="url(#i)"/><path d="m41.72 44.11-2.52-2.52-2.56 2.55 2.53 2.53c.83-.83 1.64-1.67 2.55-2.56z" fill="url(#j)"/><path d="m26 28.4-2.52-2.52-2.56 2.55 2.54 2.57c.82-.87 1.64-1.7 2.54-2.6z" fill="url(#k)"/><path d="m39.17 25.88-2.53 2.52 2.56 2.6 2.52-2.53c-.83-.86-1.65-1.68-2.55-2.59z" fill="url(#l)"/><path d="m23.46 41.59-2.53 2.52 2.56 2.56 2.51-2.53z" fill="url(#m)"/><path d="m64.72 26.58h-3.58v3.61h3.58z" fill="url(#n)"/><path d="m61 18.51h-3.55v3.61h3.55z" fill="url(#o)"/><path d="m53.91 14.14h-3.58v3.61h3.58z" fill="url(#p)"/><path d="m62.32 34.64h-3.58v3.61h3.58z" fill="url(#q)"/></svg>